<svg xmlns="http://www.w3.org/2000/svg" viewBox="0 0 29.126 20.631"><defs><style>.a{fill:#fff;}</style></defs><g transform="translate(-31 -39)"><path class="a" d="M6.068,0H16.99a0,0,0,0,1,0,0V6.068a0,0,0,0,1,0,0H0a0,0,0,0,1,0,0v0A6.068,6.068,0,0,1,6.068,0Z" transform="translate(34.641 39)"/><rect class="a" width="13.349" height="6.068" transform="translate(34.641 46.281)"/><path class="a" d="M0,0H16.99a0,0,0,0,1,0,0V0a6.068,6.068,0,0,1-6.068,6.068H0a0,0,0,0,1,0,0V0A0,0,0,0,1,0,0Z" transform="translate(31 53.563)"/><rect class="a" width="7.281" height="20.631" transform="translate(52.844 39)"/></g></svg>